<?xml version="1.0" encoding="UTF-8" standalone="no"?>
<!-- Generator: Adobe Illustrator 17.0.0, SVG Export Plug-In . SVG Version: 6.00 Build 0)  -->

<svg
   xmlns:dc="http://purl.org/dc/elements/1.1/"
   xmlns:cc="http://creativecommons.org/ns#"
   xmlns:rdf="http://www.w3.org/1999/02/22-rdf-syntax-ns#"
   xmlns:svg="http://www.w3.org/2000/svg"
   xmlns="http://www.w3.org/2000/svg"
   xmlns:sodipodi="http://sodipodi.sourceforge.net/DTD/sodipodi-0.dtd"
   xmlns:inkscape="http://www.inkscape.org/namespaces/inkscape"
   version="1.1"
   id="Layer_1"
   x="0px"
   y="0px"
   width="42px"
   height="42px"
   viewBox="0 0 42 42"
   enable-background="new 0 0 42 42"
   xml:space="preserve"
   inkscape:version="0.91 r13725"
   sodipodi:docname="FCS.svg"
   inkscape:export-filename="C:\Users\lawdx\Desktop\AddConditionSequence\FCS.png"
   inkscape:export-xdpi="55.341202"
   inkscape:export-ydpi="55.341202"><metadata
   id="metadata4753"><rdf:RDF><cc:Work
       rdf:about=""><dc:format>image/svg+xml</dc:format><dc:type
         rdf:resource="http://purl.org/dc/dcmitype/StillImage" /><dc:title></dc:title></cc:Work></rdf:RDF></metadata><defs
   id="defs4751">
	
	
	
	
	
	
	
	
	
</defs><sodipodi:namedview
   pagecolor="#ffffff"
   bordercolor="#666666"
   borderopacity="1"
   objecttolerance="10"
   gridtolerance="10"
   guidetolerance="10"
   inkscape:pageopacity="0"
   inkscape:pageshadow="2"
   inkscape:window-width="2560"
   inkscape:window-height="1378"
   id="namedview4749"
   showgrid="false"
   inkscape:zoom="15.893067"
   inkscape:cx="20.65211"
   inkscape:cy="16.72676"
   inkscape:window-x="1352"
   inkscape:window-y="-8"
   inkscape:window-maximized="1"
   inkscape:current-layer="layer2" />
<g
   inkscape:groupmode="layer"
   id="layer4"
   inkscape:label="Layer 3"><path
     inkscape:connector-curvature="0"
     id="rect4731"
     d="m 26.157,26.375999 3.012,0 0,2.605 -3.012,0 z"
     style="fill:none" /><path
     inkscape:connector-curvature="0"
     id="rect4733"
     d="m 26.157,13.384 3.012,0 0,2.606 -3.012,0 z"
     style="fill:none" /><path
     inkscape:connector-curvature="0"
     id="rect4735"
     d="m 26.157,10.735 3.012,0 0,1.443 -3.012,0 z"
     style="fill:none" /><path
     inkscape:connector-curvature="0"
     id="polygon4737"
     d="m 30.374,15.89 0,1.305 -5.422,0 0,-1.305 0,-2.406 0,-1.406 0,-1.343 -3.443,0 0,21.12 7.66,0 0,-1.668 -4.217,0 0,-5.017 4.117,0 1.305,0 0,1.306 0,2.405 0,1.406 0,1.568 2.921,0 0,-21.12 -2.921,0 0,1.343 0,1.406 z"
     style="fill:none" /><path
     style="fill:#eff9fe"
     inkscape:connector-curvature="0"
     id="path4739"
     d="m 21.309,10.735 -12.38,0 0,21.12 12.38,0 0,-21.12 z m -8.954,14.232 -1.205,0 0,-7.828 1.205,0 0,7.828 z m 1.059,0 0,-7.828 5.423,0 0,7.828 -5.423,0 z" /><path
     inkscape:connector-curvature="0"
     id="rect4741"
     d="m 14.62,18.344999 3.011,0 0,5.417 -3.011,0 z"
     style="fill:#eff9fe" /><path
     inkscape:connector-curvature="0"
     id="rect4743"
     d="m 11.149,17.139 1.205,0 0,7.828 -1.205,0 z"
     style="fill:#3d6480" /><path
     style="fill:#3d6480"
     inkscape:connector-curvature="0"
     id="path4745"
     d="m 13.414,17.139 0,7.828 5.423,0 0,-7.828 -5.423,0 z m 4.217,6.623 -3.011,0 0,-5.417 3.011,0 0,5.417 z" /><path
     style="fill:#ffd8df;fill-opacity:1;stroke:#ffffff;stroke-width:0;stroke-linecap:round;stroke-linejoin:round;stroke-miterlimit:0;stroke-dasharray:none;stroke-opacity:1"
     d="M 21.507812 10.720703 L 21.507812 31.841797 L 26.908203 31.841797 L 23.412109 25.957031 A 0.44161033 0.44161033 0 0 1 23.390625 25.919922 C 23.274598 25.673212 23.226562 25.433095 23.226562 25.21875 C 23.226562 24.538315 23.695017 24.004239 24.298828 23.642578 C 24.902639 23.280918 25.682308 23.030928 26.548828 22.839844 C 28.281869 22.457676 30.36263 22.330078 31.919922 22.330078 C 32.341289 22.330078 32.838198 22.35923 33.318359 22.380859 L 33.318359 10.720703 L 21.507812 10.720703 z "
     id="rect5384" /><path
     style="fill:#3d6480"
     d="M 7.2285156 9.0351562 L 7.2285156 33.554688 L 27.925781 33.554688 L 26.916016 31.855469 L 21.509766 31.855469 L 21.509766 10.736328 L 24.951172 10.736328 L 24.951172 12.078125 L 24.951172 13.484375 L 24.951172 15.890625 L 24.951172 17.195312 L 30.373047 17.195312 L 30.373047 15.890625 L 30.373047 13.484375 L 30.373047 12.078125 L 30.373047 10.736328 L 33.294922 10.736328 L 33.294922 22.378906 C 33.855005 22.403705 34.405582 22.431343 34.996094 22.492188 L 34.996094 9.0351562 L 7.2285156 9.0351562 z M 8.9296875 10.734375 L 21.308594 10.734375 L 21.308594 31.855469 L 8.9296875 31.855469 L 8.9296875 10.734375 z M 26.15625 10.736328 L 29.169922 10.736328 L 29.169922 12.179688 L 26.15625 12.179688 L 26.15625 10.736328 z M 26.15625 13.384766 L 29.169922 13.384766 L 29.169922 15.990234 L 26.15625 15.990234 L 26.15625 13.384766 z M 24.951172 28.548828 L 24.951172 30.1875 L 25.925781 30.1875 L 24.951172 28.548828 z "
     id="path4747" /></g><g
   inkscape:groupmode="layer"
   id="layer2"
   inkscape:label="Layer 2"
   style="display:inline" />
<g
   inkscape:groupmode="layer"
   id="layer1"
   inkscape:label="Layer 1"
   style="display:inline"
   sodipodi:insensitive="true"><g
     id="g5409"
     transform="translate(0.88983012,0.80084751)"><path
       style="fill:#fff5e6"
       inkscape:connector-curvature="0"
       d="m 31.029525,23.170389 c -4.161,0 -6.688,0.781 -7.035,1.251001 l 0.239,0.402 c 0.915,0.469 3.201,1.041 6.796,1.041 3.593,0 5.878,-0.572 6.794,-1.04 l 0.248,-0.426 c -0.28,-0.423 -2.819,-1.228 -7.042,-1.228 z"
       id="path4176" /><path
       style="fill:#fff5e6"
       inkscape:connector-curvature="0"
       d="m 37.177525,25.936389 c -1.788,0.55 -4.436,0.729 -6.148,0.729 -1.708,0 -4.345,-0.178 -6.133,-0.725 l 5.913,9.955 0,2.467 0.574,0 0,-2.464 5.794,-9.962 z"
       id="path4178" /><path
       style="fill:#ff9c04"
       inkscape:connector-curvature="0"
       d="m 35.458525,22.310389 c -1.491,-0.247 -3.145,-0.339 -4.429,-0.339 -3.065,0 -8.252,0.515 -8.252,2.446 0,0.164001 0.029,0.312 0.124,0.514 l 5.629,9.477 0.08,0.135 1,1.683 0,3.336 2.973,0 0,-3.339 6.606,-11.369 c 0.062,-0.138999 0.092,-0.285 0.092,-0.437 0,-1.122 -1.754,-1.764 -3.823,-2.107 z m -4.074,16.053 -0.574,0 0,-2.467 -5.913,-9.955 c 1.788,0.547 4.425,0.725 6.133,0.725 1.712,0 4.36,-0.179 6.148,-0.729 l -5.793,9.963 0,2.463001 z m 6.44,-13.538 c -0.916,0.468 -3.201,1.04 -6.794,1.04 -3.596,0 -5.882,-0.573 -6.796,-1.041 l -0.239,-0.402 c 0.348,-0.47 2.874,-1.251 7.035,-1.251 4.223,0 6.762,0.805 7.042,1.229 l -0.248,0.425 z"
       id="path4180" /></g></g></svg>